<?xml version="1.0" encoding="UTF-8" standalone="no"?>
<svg
   aria-hidden="true"
   focusable="false"
   data-prefix="fas"
   data-icon="chart-line"
   class="svg-inline--fa fa-chart-line fa-w-16"
   role="img"
   viewBox="0 0 512 512"
   version="1.1"
   id="svg4"
   sodipodi:docname="chart-line-down-solid.svg"
   inkscape:version="1.1 (c4e8f9ed74, 2021-05-24)"
   xmlns:inkscape="http://www.inkscape.org/namespaces/inkscape"
   xmlns:sodipodi="http://sodipodi.sourceforge.net/DTD/sodipodi-0.dtd"
   xmlns="http://www.w3.org/2000/svg"
   xmlns:svg="http://www.w3.org/2000/svg">
  <defs
     id="defs8" />
  <sodipodi:namedview
     id="namedview6"
     pagecolor="#ffffff"
     bordercolor="#666666"
     borderopacity="1.0"
     inkscape:pageshadow="2"
     inkscape:pageopacity="0.0"
     inkscape:pagecheckerboard="0"
     showgrid="false"
     inkscape:zoom="1.6894531"
     inkscape:cx="137.6185"
     inkscape:cy="257.18382"
     inkscape:window-width="1920"
     inkscape:window-height="1056"
     inkscape:window-x="0"
     inkscape:window-y="0"
     inkscape:window-maximized="1"
     inkscape:current-layer="svg4" />
  <path
     fill="currentColor"
     d="M 496,384 H 64 V 80 C 64,71.16 56.84,64 48,64 H 16 C 7.16,64 0,71.16 0,80 v 336 c 0,17.67 14.33,32 32,32 h 464 c 8.84,0 16,-7.16 16,-16 v -32 c 0,-8.84 -7.16,-16 -16,-16 z m -38.57577,-54.01955 h -118.06 c -21.37999,0 -32.09,-25.85 -16.97,-40.97 l 32.4,-32.4 -73.37,-73.38 -73.36999,73.37 c -12.5,12.50001 -32.76001,12.5 -45.25001,0 l -68.689995,-68.69 c -6.25,-6.25 -6.250003,-16.38 -3e-6,-22.63 l 22.619998,-22.62 c 6.25,-6.25001 16.38,-6.25 22.63,0 l 46.06,46.07 73.37001,-73.37001 c 12.49999,-12.49999 32.76,-12.49999 45.25,0 l 95.99999,96.00001 32.40001,-32.4 c 15.12,-15.11999 40.97,-4.41 40.97,16.97 v 118.05 c 0.01,8.84 -7.15,16 -15.99001,16 z"
     id="path2"
     sodipodi:nodetypes="scsssssssssssssccscsssccsccsscs" />
</svg>
