<?xml version="1.0" encoding="utf-8"?>
<!-- Generator: Adobe Illustrator 16.0.0, SVG Export Plug-In . SVG Version: 6.00 Build 0)  -->
<!DOCTYPE svg PUBLIC "-//W3C//DTD SVG 1.1//EN" "http://www.w3.org/Graphics/SVG/1.1/DTD/svg11.dtd">
<svg version="1.1" id="Layer_1" xmlns="http://www.w3.org/2000/svg" xmlns:xlink="http://www.w3.org/1999/xlink" x="0px" y="0px"
	 width="612.035px" height="667.624px" viewBox="-0.006 62.208 612.035 667.624"
	 enable-background="new -0.006 62.208 612.035 667.624" xml:space="preserve">
<title>4 -Spider- (Outline)</title>
<desc>Created with Sketch.</desc>
<g>
	<g>
		<path fill="#231F20" d="M306.011,312.56c-30.154,0-55.636,38.222-55.636,83.454c0,45.232,25.481,83.455,55.636,83.455
			c30.155,0,55.637-38.223,55.637-83.455C361.647,350.782,336.166,312.56,306.011,312.56 M306.011,535.104
			c-61.367,0-111.272-62.396-111.272-139.091c0-76.694,49.906-139.091,111.272-139.091c61.367,0,111.273,62.396,111.273,139.091
			C417.284,472.709,367.378,535.104,306.011,535.104"/>
		<path fill="#231F20" d="M417.284,312.56H306.011c-15.383,0-27.818-12.463-27.818-27.818s12.435-27.818,27.818-27.818h102.844
			l66.875-44.564l25.565-127.797c3.004-15.078,17.637-24.814,32.714-21.81c15.05,3.004,24.842,17.665,21.81,32.714L528,234.557
			c-1.419,7.233-5.702,13.603-11.822,17.692l-83.455,55.636C428.161,310.918,422.764,312.56,417.284,312.56"/>
		<path fill="#231F20" d="M584.221,507.287c-10.209,0-20.029-5.62-24.925-15.384l-24.48-49.016l-70.324-46.874h-75.025
			c-15.384,0-27.818-12.462-27.818-27.818c0-15.356,12.435-27.818,27.818-27.818h83.454c5.48,0,10.877,1.642,15.439,4.673
			l83.454,55.637c4.006,2.698,7.261,6.37,9.459,10.71l27.817,55.637c6.871,13.742,1.28,30.433-12.462,37.332
			C592.649,506.341,588.394,507.287,584.221,507.287"/>
		<path fill="#231F20" d="M417.256,729.832c-5.285,0-10.654-1.502-15.411-4.674c-12.796-8.512-16.246-25.787-7.706-38.583
			l50.963-76.444v-91.327L369.798,443.5c-10.877-10.877-10.877-28.458,0-39.335c10.877-10.877,28.458-10.877,39.335,0l83.455,83.454
			c5.229,5.202,8.15,12.296,8.15,19.668V618.56c0,5.479-1.642,10.877-4.674,15.438l-55.636,83.455
			C435.088,725.492,426.241,729.832,417.256,729.832"/>
		<path fill="#231F20" d="M306.011,312.56H194.738c-5.48,0-10.877-1.642-15.439-4.674L95.845,252.25
			c-6.12-4.089-10.404-10.459-11.823-17.692L56.204,95.466c-3.032-15.05,6.76-29.71,21.809-32.714
			c15.189-3.004,29.738,6.76,32.714,21.81l25.565,127.797l66.875,44.564h102.843c15.384,0,27.818,12.463,27.818,27.818
			S321.395,312.56,306.011,312.56"/>
		<path fill="#231F20" d="M27.801,507.287c-4.172,0-8.429-0.946-12.407-2.921c-13.742-6.899-19.333-23.59-12.462-37.332
			l27.818-55.637c2.198-4.34,5.453-8.012,9.458-10.71l83.455-55.637c4.562-3.032,9.959-4.673,15.439-4.673h83.455
			c15.383,0,27.818,12.462,27.818,27.818c0,15.355-12.435,27.818-27.818,27.818h-75.026l-70.324,46.874l-24.48,49.016
			C47.831,501.667,38.011,507.287,27.801,507.287"/>
		<path fill="#231F20" d="M194.766,729.832c-8.985,0-17.832-4.34-23.172-12.379l-55.636-83.455
			c-3.032-4.562-4.674-9.959-4.674-15.438V507.287c0-7.372,2.921-14.466,8.151-19.668l83.455-83.454
			c10.877-10.877,28.458-10.877,39.335,0c10.877,10.877,10.877,28.458,0,39.335l-75.304,75.304v91.327l50.963,76.444
			c8.54,12.796,5.09,30.071-7.706,38.583C205.42,728.33,200.052,729.832,194.766,729.832"/>
		<path fill="#231F20" d="M306.011,173.468c-14.799,0-27.818,19.5-27.818,41.728c0,22.227,13.019,41.727,27.818,41.727
			c14.8,0,27.818-19.5,27.818-41.727C333.829,192.969,320.811,173.468,306.011,173.468 M306.011,312.56
			c-46.011,0-83.454-43.675-83.454-97.364s37.443-97.364,83.454-97.364c46.012,0,83.455,43.675,83.455,97.364
			S352.022,312.56,306.011,312.56"/>
	</g>
</g>
</svg>
