<svg fill="#666666" xmlns="http://www.w3.org/2000/svg" xmlns:xlink="http://www.w3.org/1999/xlink" viewBox="0 0 22 24" version="1.1" x="0px" y="0px"><title>4 -Spider- (Outline)</title><desc>Created with Sketch.</desc><g stroke="none" stroke-width="1" fill="none" fill-rule="evenodd"><g fill="#666666"><path d="M11.0004,9.0005 C9.9164,9.0005 9.0004,10.3745 9.0004,12.0005 C9.0004,13.6265 9.9164,15.0005 11.0004,15.0005 C12.0844,15.0005 13.0004,13.6265 13.0004,12.0005 C13.0004,10.3745 12.0844,9.0005 11.0004,9.0005 M11.0004,17.0005 C8.7944,17.0005 7.0004,14.7575 7.0004,12.0005 C7.0004,9.2435 8.7944,7.0005 11.0004,7.0005 C13.2064,7.0005 15.0004,9.2435 15.0004,12.0005 C15.0004,14.7575 13.2064,17.0005 11.0004,17.0005"></path><path d="M15.0004,9.0005 L11.0004,9.0005 C10.4474,9.0005 10.0004,8.5525 10.0004,8.0005 C10.0004,7.4485 10.4474,7.0005 11.0004,7.0005 L14.6974,7.0005 L17.1014,5.3985 L18.0204,0.8045 C18.1284,0.2625 18.6544,-0.0875 19.1964,0.0205 C19.7374,0.1285 20.0894,0.6555 19.9804,1.1965 L18.9804,6.1965 C18.9294,6.4565 18.7754,6.6855 18.5554,6.8325 L15.5554,8.8325 C15.3914,8.9415 15.1974,9.0005 15.0004,9.0005"></path><path d="M21.0014,16.0005 C20.6344,16.0005 20.2814,15.7985 20.1054,15.4475 L19.2254,13.6855 L16.6974,12.0005 L14.0004,12.0005 C13.4474,12.0005 13.0004,11.5525 13.0004,11.0005 C13.0004,10.4485 13.4474,10.0005 14.0004,10.0005 L17.0004,10.0005 C17.1974,10.0005 17.3914,10.0595 17.5554,10.1685 L20.5554,12.1685 C20.6994,12.2655 20.8164,12.3975 20.8954,12.5535 L21.8954,14.5535 C22.1424,15.0475 21.9414,15.6475 21.4474,15.8955 C21.3044,15.9665 21.1514,16.0005 21.0014,16.0005"></path><path d="M14.9994,24.0005 C14.8094,24.0005 14.6164,23.9465 14.4454,23.8325 C13.9854,23.5265 13.8614,22.9055 14.1684,22.4455 L16.0004,19.6975 L16.0004,16.4145 L13.2934,13.7075 C12.9024,13.3165 12.9024,12.6845 13.2934,12.2935 C13.6844,11.9025 14.3164,11.9025 14.7074,12.2935 L17.7074,15.2935 C17.8954,15.4805 18.0004,15.7355 18.0004,16.0005 L18.0004,20.0005 C18.0004,20.1975 17.9414,20.3915 17.8324,20.5555 L15.8324,23.5555 C15.6404,23.8445 15.3224,24.0005 14.9994,24.0005"></path><path d="M11.0004,9.0005 L7.0004,9.0005 C6.8034,9.0005 6.6094,8.9415 6.4454,8.8325 L3.4454,6.8325 C3.2254,6.6855 3.0714,6.4565 3.0204,6.1965 L2.0204,1.1965 C1.9114,0.6555 2.2634,0.1285 2.8044,0.0205 C3.3504,-0.0875 3.8734,0.2635 3.9804,0.8045 L4.8994,5.3985 L7.3034,7.0005 L11.0004,7.0005 C11.5534,7.0005 12.0004,7.4485 12.0004,8.0005 C12.0004,8.5525 11.5534,9.0005 11.0004,9.0005"></path><path d="M0.9994,16.0005 C0.8494,16.0005 0.6964,15.9665 0.5534,15.8955 C0.0594,15.6475 -0.1416,15.0475 0.1054,14.5535 L1.1054,12.5535 C1.1844,12.3975 1.3014,12.2655 1.4454,12.1685 L4.4454,10.1685 C4.6094,10.0595 4.8034,10.0005 5.0004,10.0005 L8.0004,10.0005 C8.5534,10.0005 9.0004,10.4485 9.0004,11.0005 C9.0004,11.5525 8.5534,12.0005 8.0004,12.0005 L5.3034,12.0005 L2.7754,13.6855 L1.8954,15.4475 C1.7194,15.7985 1.3664,16.0005 0.9994,16.0005"></path><path d="M7.0014,24.0005 C6.6784,24.0005 6.3604,23.8445 6.1684,23.5555 L4.1684,20.5555 C4.0594,20.3915 4.0004,20.1975 4.0004,20.0005 L4.0004,16.0005 C4.0004,15.7355 4.1054,15.4805 4.2934,15.2935 L7.2934,12.2935 C7.6844,11.9025 8.3164,11.9025 8.7074,12.2935 C9.0984,12.6845 9.0984,13.3165 8.7074,13.7075 L6.0004,16.4145 L6.0004,19.6975 L7.8324,22.4455 C8.1394,22.9055 8.0154,23.5265 7.5554,23.8325 C7.3844,23.9465 7.1914,24.0005 7.0014,24.0005"></path><path d="M11.0004,4.0005 C10.4684,4.0005 10.0004,4.7015 10.0004,5.5005 C10.0004,6.2995 10.4684,7.0005 11.0004,7.0005 C11.5324,7.0005 12.0004,6.2995 12.0004,5.5005 C12.0004,4.7015 11.5324,4.0005 11.0004,4.0005 M11.0004,9.0005 C9.3464,9.0005 8.0004,7.4305 8.0004,5.5005 C8.0004,3.5705 9.3464,2.0005 11.0004,2.0005 C12.6544,2.0005 14.0004,3.5705 14.0004,5.5005 C14.0004,7.4305 12.6544,9.0005 11.0004,9.0005"></path></g></g></svg>