<?xml version="1.0" encoding="UTF-8"?>
<svg width="475.08px" height="475.08px" enable-background="new 0 0 475.082 475.082" version="1.1" viewBox="0 0 475.08 475.08" xml:space="preserve" xmlns="http://www.w3.org/2000/svg" xmlns:cc="http://creativecommons.org/ns#" xmlns:dc="http://purl.org/dc/elements/1.1/" xmlns:rdf="http://www.w3.org/1999/02/22-rdf-syntax-ns#"><metadata><rdf:RDF><cc:Work rdf:about=""><dc:format>image/svg+xml</dc:format><dc:type rdf:resource="http://purl.org/dc/dcmitype/StillImage"/><dc:title/></cc:Work></rdf:RDF></metadata>

	
		<path d="m107.07 317.2c1.713-1.708 2.568-3.898 2.568-6.563 0-2.663-0.855-4.853-2.568-6.571-1.714-1.707-3.905-2.562-6.567-2.562h-91.365c-2.666 0-4.853 0.855-6.567 2.562-1.709 1.711-2.568 3.901-2.568 6.571 0 2.665 0.855 4.855 2.568 6.563 1.714 1.711 3.905 2.566 6.567 2.566h91.365c2.666 5e-3 4.853-0.851 6.567-2.566z"/>
		<path d="m310.63 109.63c2.669 0 4.859-0.855 6.563-2.568 1.718-1.711 2.574-3.901 2.574-6.567v-91.361c0-2.659-0.856-4.85-2.574-6.565-1.704-1.711-3.895-2.57-6.563-2.57-2.662 0-4.853 0.859-6.563 2.57-1.711 1.713-2.566 3.903-2.566 6.565v91.361c0 2.666 0.855 4.856 2.566 6.567 1.718 1.713 3.908 2.568 6.563 2.568z"/>
		<path d="m118.77 347.18c-2.478 0-4.664 0.855-6.567 2.563l-73.089 73.087c-1.713 1.902-2.568 4.093-2.568 6.567s0.855 4.664 2.568 6.566c2.096 1.708 4.283 2.57 6.567 2.57 2.475 0 4.665-0.862 6.567-2.57l73.089-73.087c1.714-1.902 2.568-4.093 2.568-6.57 0-2.471-0.854-4.661-2.568-6.563-1.902-1.708-4.093-2.563-6.567-2.563z"/>
		<path d="m356.32 127.9c2.283 0 4.473-0.855 6.571-2.565l73.087-73.089c1.707-1.903 2.562-4.093 2.562-6.567 0-2.475-0.855-4.665-2.562-6.567-1.91-1.709-4.093-2.568-6.571-2.568-2.471 0-4.66 0.859-6.563 2.568l-73.087 73.089c-1.708 1.903-2.57 4.093-2.57 6.567s0.862 4.661 2.57 6.567c2.094 1.71 4.285 2.565 6.563 2.565z"/>
		<path d="m350.61 193c-4-3.999-9.328-7.994-15.988-11.991l-5.14 68.238 78.23 78.508c5.328 5.328 7.987 11.807 7.987 19.417 0 7.423-2.662 13.802-7.987 19.13l-41.977 41.686c-5.146 5.146-11.608 7.666-19.417 7.566-7.81-0.1-14.271-2.707-19.411-7.854l-77.946-78.225-68.234 5.144c3.999 6.656 7.993 11.988 11.991 15.985l95.362 95.643c15.803 16.18 35.207 24.27 58.238 24.27 22.846 0 42.154-7.898 57.957-23.695l41.977-41.685c16.173-15.8 24.27-35.115 24.27-57.958 0-22.46-7.994-41.877-23.982-58.248l-95.93-95.931z"/>
		<path d="m472.52 157.89c-1.711-1.709-3.901-2.565-6.563-2.565h-91.365c-2.662 0-4.853 0.855-6.563 2.565-1.715 1.713-2.57 3.903-2.57 6.567 0 2.666 0.855 4.856 2.57 6.567 1.711 1.712 3.901 2.568 6.563 2.568h91.365c2.662 0 4.853-0.856 6.563-2.568 1.708-1.711 2.563-3.901 2.563-6.567 1e-3 -2.664-0.855-4.854-2.563-6.567z"/>
		<path d="m109.35 67.099c5.523-5.14 11.991-7.705 19.417-7.705 7.611 0 14.084 2.663 19.414 7.993l77.943 78.227 68.234-5.142c-4-6.661-7.99-11.991-11.991-15.987l-95.358-95.643c-15.798-16.178-35.212-24.27-58.242-24.27-22.841 0-42.16 7.902-57.958 23.7l-41.97 41.683c-16.178 15.801-24.267 35.118-24.267 57.957 0 22.463 7.996 41.877 23.982 58.245l95.93 95.93c3.995 4.001 9.325 7.995 15.986 11.991l5.139-68.521-78.23-78.227c-5.327-5.33-7.992-11.801-7.992-19.417 0-7.421 2.662-13.796 7.992-19.126l41.971-41.688z"/>
		<path d="m164.45 365.45c-2.667 0-4.854 0.855-6.567 2.563-1.711 1.711-2.568 3.901-2.568 6.57v91.358c0 2.669 0.854 4.853 2.568 6.57 1.713 1.707 3.9 2.566 6.567 2.566 2.666 0 4.853-0.859 6.567-2.566 1.713-1.718 2.568-3.901 2.568-6.57v-91.358c0-2.662-0.855-4.853-2.568-6.57-1.715-1.707-3.905-2.563-6.567-2.563z"/>
	
















</svg>
