<?xml version="1.0" encoding="iso-8859-1"?>
<!-- Generator: Adobe Illustrator 16.0.0, SVG Export Plug-In . SVG Version: 6.00 Build 0)  -->
<!DOCTYPE svg PUBLIC "-//W3C//DTD SVG 1.1//EN" "http://www.w3.org/Graphics/SVG/1.1/DTD/svg11.dtd">
<svg version="1.1" id="Capa_1" xmlns="http://www.w3.org/2000/svg" xmlns:xlink="http://www.w3.org/1999/xlink" x="0px" y="0px"
	 width="465.086px" height="465.086px" viewBox="0 0 465.086 465.086" style="enable-background:new 0 0 465.086 465.086;"
	 xml:space="preserve">
<g>
	<path d="M464.985,326.143c0,12.9-12.199,25.101-25.1,25.101c-16.5,0-26.3,8-40.4,20.8c-14.1,12.8-33,33-63.6,33s-49.6-20.2-63.6-33
		c-14.101-12.9-23.301-20.8-39.8-20.8c-16.5,0-25.7,8-39.8,20.8c-14.1,12.8-33,33-63.6,33c-30.6,0-49.6-20.2-63.6-33
		c-14.1-12.9-23.3-20.8-39.8-20.8c-12.9,0-25.1-11.601-25.1-25.101s12.2-25.1,25.1-24.5c34.3,0,58.1,19.601,73.4,33.7
		c15.3,14.101,23.3,20.2,30.6,20.2c7.3,0,14.7-6.1,30-20.2c15.3-14.1,39.2-33.7,73.4-33.7s57.5,19.601,73.399,33.7
		c15.301,14.101,23.301,20.2,30.601,20.2s14.7-6.1,30-20.2c15.3-14.1,39.2-33.7,73.399-33.7
		C452.786,301.043,464.985,313.343,464.985,326.143z M24.986,109.543c16.5,0,25.7,7.3,39.8,20.2c14.1,12.9,33,33,63.6,33
		c1.8,0,3.7,0,5.5,0c27.5-2.4,44.7-20.8,58.1-33c12.2-11,20.8-18.4,34.3-20.2c1.8,0,3.7-0.6,6.1-0.6c16.5,0,25.7,7.3,39.8,20.2
		c3.7,3.1,7.3,6.7,11.601,11c12.899,11,28.8,22.6,52,22.6c1.8,0,3.699,0,5.5,0c27.5-2.4,44.699-20.8,58.1-33
		c12.2-11,20.8-18.4,34.3-20.2c1.8,0,3.7-0.6,6.101-0.6c3.1,0,6.699-0.6,9.199-1.8c1.2-0.6,3.101-1.2,4.301-2.4
		c6.699-4.3,11.6-12.2,11.6-20.2c0-3.1-0.6-6.7-1.8-9.2l0,0c-1.2-3.1-3.101-5.5-5.5-8c-1.2-1.2-2.4-2.4-3.7-3.1
		c-1.2-0.6-2.4-1.8-4.3-2.4c-1.8-0.6-3.101-1.2-4.9-1.2c-1.8-0.6-3.1-0.6-4.899-0.6c-1.801,0-4.301,0-6.101,0
		c-30.6,2.4-52.6,19.6-67.3,33c-13.5,12.2-20.8,19-27.5,20.2c-1.2,0-1.8,0.6-2.4,0.6c-1.8,0-3.7-0.6-5.5-1.2
		c-3.7-1.8-8.6-4.9-14.1-10.4c-3.101-2.4-6.7-5.5-10.4-9.2c-15.3-14.1-39.2-33-73.4-33c-1.8,0-4.3,0-6.1,0
		c-30.6,2.4-52.6,19.6-67.3,33c-13.5,12.2-20.8,19-27.5,20.2c-1.2,0-1.8,0.6-2.4,0.6c-1.8,0-3.7-0.6-5.5-1.2s-4.3-2.4-6.7-3.7
		c-4.9-3.1-10.4-8.6-18.4-15.3c-15.3-14.1-39.2-33-73.4-33c-0.6,0-1.8,0-2.4,0l0,0c-12.9,0.6-24.5,12.9-23.3,25.7
		C-0.714,99.143,12.086,110.143,24.986,109.543z M439.286,180.543c-1.801,0-4.301,0-6.101,0c-30.6,2.4-52.6,20.2-67.3,33
		c-13.5,12.2-20.8,19-27.5,20.2c-1.2,0-1.8,0.6-2.4,0.6c-2.399,0-5.5-1.2-8.6-3.1c-5.5-3.1-12.2-8.6-21.4-17.7
		c-15.3-14.1-39.199-33.7-73.399-33.7c-1.8,0-4.3,0-6.1,0c-30.6,2.4-52.6,20.2-67.3,33c-13.5,12.2-20.8,19-27.5,20.2
		c-1.2,0-1.8,0.6-2.4,0.6c-2.4,0-5.5-1.199-8.6-3.1c-1.2-0.6-2.4-1.2-3.7-1.8c-4.9-3.1-10.4-8.6-18.4-15.3
		c-15.3-14.1-39.2-33.7-73.4-33.7c-12.9,0-25.1,11.6-25.1,25.1s12.2,25.1,25.1,24.5c16.5,0,25.7,8,39.8,20.8
		c14.1,12.9,33,33,63.6,33c1.8,0,3.7,0,5.5,0c27.5-2.399,44.7-20.8,58.1-33c8.6-8,15.9-14.1,23.9-17.1c1.8-0.6,3.1-1.2,4.9-1.8
		c1.8-0.6,3.7-0.6,5.5-1.2c1.8,0,3.7-0.6,6.1-0.6c16.5,0,25.7,8,39.8,20.8c3.7,3.1,7.3,6.7,11.6,11c12.9,11,28.801,22.6,52,22.6
		c1.801,0,3.7,0,5.5,0c27.5-2.399,44.7-20.8,58.101-33c8.6-8,15.899-14.1,23.899-17.1c1.801-0.601,3.101-1.2,4.9-1.8
		s3.7-0.6,5.5-1.2c1.8,0,3.7-0.6,6.1-0.6c12.9,0,25.101-11.6,25.101-24.5C464.985,192.743,452.786,180.543,439.286,180.543z"/>
</g>
<g>
</g>
<g>
</g>
<g>
</g>
<g>
</g>
<g>
</g>
<g>
</g>
<g>
</g>
<g>
</g>
<g>
</g>
<g>
</g>
<g>
</g>
<g>
</g>
<g>
</g>
<g>
</g>
<g>
</g>
</svg>
