<?xml version="1.0" standalone="no"?>
<!DOCTYPE svg PUBLIC "-//W3C//DTD SVG 20010904//EN"
 "http://www.w3.org/TR/2001/REC-SVG-20010904/DTD/svg10.dtd">
<svg version="1.0" xmlns="http://www.w3.org/2000/svg"
 width="374.000000pt" height="219.000000pt" viewBox="0 0 374.000000 219.000000"
 preserveAspectRatio="xMidYMid meet">

<g transform="translate(0.000000,219.000000) scale(0.100000,-0.100000)"
fill="#000000" stroke="none">
<path d="M2665 2174 c-254 -36 -476 -140 -710 -336 l-91 -75 -69 59 c-151 127
-342 239 -495 290 -121 41 -188 52 -315 52 -169 0 -304 -34 -470 -116 -208
-104 -515 -353 -515 -418 0 -42 197 -223 355 -326 191 -124 333 -177 563 -210
l33 -5 -78 -61 c-43 -34 -126 -109 -185 -167 -147 -144 -147 -138 10 -291 285
-279 608 -465 922 -531 451 -95 958 97 1402 531 158 154 158 146 0 300 -65 63
-150 140 -191 170 l-73 55 54 7 c237 34 378 86 573 212 158 103 355 284 355
326 0 27 -71 103 -185 198 -254 212 -508 325 -758 336 -56 2 -115 2 -132 0z
m-231 -256 c-34 -32 -67 -76 -87 -117 -29 -60 -32 -74 -32 -161 0 -87 3 -101
32 -161 20 -41 53 -85 87 -117 30 -29 49 -52 41 -52 -7 0 -62 24 -122 54 -117
59 -244 145 -333 226 l-55 50 55 50 c89 81 216 167 333 226 60 30 115 54 122
54 8 0 -11 -23 -41 -52z m723 -2 c117 -59 244 -145 333 -226 l55 -50 -55 -50
c-89 -81 -216 -167 -333 -226 -60 -30 -115 -54 -122 -54 -8 0 11 23 41 52 34
32 67 76 87 117 29 60 32 74 32 161 0 87 -3 101 -32 161 -20 41 -53 85 -87
117 -30 29 -49 52 -41 52 7 0 62 -24 122 -54z m-2493 -8 c-34 -32 -67 -76 -87
-117 -29 -60 -32 -74 -32 -161 0 -87 3 -101 32 -161 20 -41 53 -85 87 -117 30
-29 49 -52 41 -52 -7 0 -62 24 -122 54 -117 59 -244 145 -333 226 l-55 50 55
50 c89 81 216 167 333 226 60 30 115 54 122 54 8 0 -11 -23 -41 -52z m723 -2
c117 -59 244 -145 333 -226 l55 -50 -55 -50 c-89 -81 -216 -167 -333 -226 -60
-30 -115 -54 -122 -54 -8 0 11 23 41 52 34 32 67 76 87 117 29 60 32 74 32
161 0 87 -3 101 -32 161 -20 41 -53 85 -87 117 -30 29 -49 52 -41 52 7 0 62
-24 122 -54z m1237 10 c40 -17 72 -56 87 -107 16 -52 -9 -119 -59 -157 -46
-35 -135 -39 -178 -6 -51 38 -69 71 -69 129 0 114 111 186 219 141z m-1770
-10 c40 -17 72 -56 87 -107 16 -52 -9 -119 -59 -157 -46 -35 -135 -39 -178 -6
-51 38 -69 71 -69 129 0 114 111 186 219 141z m1116 -481 c0 -1 -40 -2 -90 -1
-49 1 -90 3 -90 6 0 2 19 21 43 41 l42 37 48 -40 c26 -22 47 -41 47 -43z
m-524 -335 c-115 -110 -166 -223 -166 -370 0 -148 51 -260 168 -371 50 -48 67
-69 51 -64 -53 15 -269 127 -349 180 -91 61 -250 187 -289 229 l-24 26 24 26
c71 76 290 237 423 309 68 38 214 105 229 105 4 0 -26 -31 -67 -70z m919 0
c66 -32 158 -84 205 -115 91 -61 250 -187 289 -229 l24 -26 -24 -26 c-39 -42
-198 -168 -289 -229 -80 -53 -296 -165 -349 -180 -16 -5 1 16 51 64 117 111
168 223 168 371 0 148 -51 260 -168 371 -87 83 -79 83 93 -1z m-647 -22 c59
-39 97 -121 89 -191 -23 -188 -262 -245 -371 -89 -65 92 -29 235 74 290 62 32
150 28 208 -10z"/>
</g>
</svg>
