<?xml version="1.0" standalone="no"?>
<!DOCTYPE svg PUBLIC "-//W3C//DTD SVG 20010904//EN"
 "http://www.w3.org/TR/2001/REC-SVG-20010904/DTD/svg10.dtd">
<svg version="1.0" xmlns="http://www.w3.org/2000/svg"
 width="377.000000pt" height="321.000000pt" viewBox="0 0 377.000000 321.000000"
 preserveAspectRatio="xMidYMid meet">

<g transform="translate(0.000000,321.000000) scale(0.100000,-0.100000)"
fill="#000000" stroke="none">
<path d="M1766 3190 c-356 -45 -716 -235 -1038 -550 -157 -153 -157 -147 -10
-291 59 -58 142 -133 185 -166 l78 -61 -68 -7 c-247 -25 -489 -137 -728 -337
-114 -95 -185 -171 -185 -198 0 -63 306 -313 508 -414 128 -64 295 -116 374
-116 21 0 38 -4 38 -8 0 -4 -30 -33 -67 -64 -38 -31 -105 -95 -150 -141 -117
-119 -117 -119 35 -267 285 -279 608 -465 922 -531 451 -95 958 97 1402 531
159 155 159 145 -5 305 -68 66 -140 131 -160 145 -46 31 -46 40 -4 40 74 0
245 54 369 116 202 101 508 351 508 414 0 27 -71 103 -185 198 -210 176 -444
294 -640 323 -38 6 -83 14 -99 18 l-30 6 70 54 c38 30 117 102 177 160 146
144 146 138 -11 291 -350 342 -742 536 -1117 554 -55 2 -131 1 -169 -4z m-290
-330 c-115 -110 -166 -223 -166 -370 0 -148 51 -260 168 -371 50 -48 67 -69
51 -64 -53 15 -269 127 -349 180 -91 61 -250 187 -289 229 l-24 26 24 26 c71
76 290 237 423 309 68 38 214 105 229 105 4 0 -26 -31 -67 -70z m919 0 c66
-32 158 -84 205 -115 91 -61 250 -187 289 -229 l24 -26 -24 -26 c-39 -42 -198
-168 -289 -229 -80 -53 -296 -165 -349 -180 -16 -5 1 16 51 64 117 111 168
223 168 371 0 148 -51 260 -168 371 -87 83 -79 83 93 -1z m-647 -22 c59 -39
97 -121 89 -191 -23 -188 -262 -245 -371 -89 -65 92 -29 235 74 290 62 32 150
28 208 -10z m716 -970 c-34 -32 -67 -76 -87 -117 -29 -60 -32 -74 -32 -161 0
-82 4 -103 27 -152 15 -32 47 -80 73 -107 l46 -50 -115 49 c-119 49 -223 116
-326 210 l-55 50 55 50 c89 81 216 167 333 226 60 30 115 54 122 54 8 0 -11
-23 -41 -52z m723 -2 c117 -59 244 -145 333 -226 l55 -50 -55 -50 c-89 -81
-216 -167 -333 -226 -60 -30 -115 -54 -122 -54 -8 0 11 23 41 52 34 32 67 76
87 117 29 60 32 74 32 161 0 87 -3 101 -32 161 -20 41 -53 85 -87 117 -30 29
-49 52 -41 52 7 0 62 -24 122 -54z m-2523 -8 c-34 -32 -67 -76 -87 -117 -29
-60 -32 -74 -32 -161 0 -87 3 -101 32 -161 20 -41 53 -85 87 -117 30 -29 49
-52 41 -52 -7 0 -62 24 -122 54 -117 59 -244 145 -333 226 l-55 50 55 50 c89
81 216 167 333 226 60 30 115 54 122 54 8 0 -11 -23 -41 -52z m723 -2 c117
-59 244 -145 333 -226 l55 -50 -45 -41 c-78 -72 -202 -161 -267 -190 -35 -16
-93 -43 -130 -59 l-66 -31 52 56 c29 30 64 81 79 112 23 50 27 71 27 153 0 87
-3 101 -32 161 -20 41 -53 85 -87 117 -30 29 -49 52 -41 52 7 0 62 -24 122
-54z m1267 10 c40 -17 72 -56 87 -107 16 -52 -9 -119 -59 -157 -46 -35 -135
-39 -178 -6 -51 38 -69 71 -69 129 0 114 111 186 219 141z m-1800 -10 c40 -17
72 -56 87 -107 16 -52 -9 -119 -59 -157 -46 -35 -135 -39 -178 -6 -51 38 -69
71 -69 129 0 114 111 186 219 141z m1113 -77 c-1 -3 -21 -22 -44 -43 l-42 -38
-51 43 c-27 23 -50 43 -50 44 0 1 43 1 95 1 52 -1 94 -4 92 -7z m-52 -329 c18
-20 17 -20 -25 -20 -42 0 -43 0 -25 20 10 11 21 20 25 20 4 0 15 -9 25 -20z
m-429 -360 c-115 -110 -166 -223 -166 -370 0 -148 51 -260 168 -371 50 -48 67
-69 51 -64 -53 15 -269 127 -349 180 -91 61 -250 187 -289 229 l-24 26 24 26
c71 76 290 237 423 309 68 38 214 105 229 105 4 0 -26 -31 -67 -70z m919 0
c66 -32 158 -84 205 -115 91 -61 250 -187 289 -229 l24 -26 -24 -26 c-39 -42
-198 -168 -289 -229 -80 -53 -296 -165 -349 -180 -16 -5 1 16 51 64 117 111
168 223 168 371 0 148 -51 260 -168 371 -87 83 -79 83 93 -1z m-647 -22 c59
-39 97 -121 89 -191 -23 -188 -262 -245 -371 -89 -65 92 -29 235 74 290 62 32
150 28 208 -10z"/>
</g>
</svg>
