<svg width="95" height="111" xmlns="http://www.w3.org/2000/svg">
 <!-- Created with Method Draw - http://github.com/duopixel/Method-Draw/ -->

 <g>
  <title>background</title>
  <rect fill="#fff" id="canvas_background" height="113" width="97" y="-1" x="-1"/>
  <g display="none" overflow="visible" y="0" x="0" height="100%" width="100%" id="canvasGrid">
   <rect fill="url(#gridpattern)" stroke-width="0" y="0" x="0" height="100%" width="100%"/>
  </g>
 </g>
 <g>
  <title>Layer 1</title>
  <g id="svg_7">
   <path id="svg_4" d="m43.927778,50.683058c-4.622222,-4.622222 -4.622222,-12.08889 0,-16.711112c4.622222,-4.622222 12.08889,-4.622222 16.711112,0c4.622222,4.622222 4.622222,12.08889 0,16.711112s-12.08889,4.622222 -16.711112,0zm-14.933334,55.644448l0,-10.133334l-11.555556,0c-4.088889,0 -7.288889,-3.377778 -7.288889,-7.288889l0,-20.08889l-5.511111,0c-2.844445,0 -4.622222,-3.2 -3.022222,-5.511111c1.6,-2.488889 3.555556,-5.866667 5.333334,-9.422223c1.777778,-3.377778 3.2,-9.244445 3.2,-12.977779l0,-1.066667l0.177778,0c1.6,-22.755557 21.333335,-40.711114 44.800003,-38.933336c21.333335,1.422222 38.222225,19.377779 38.755558,40.711114c0.355556,11.022223 -3.555556,20.977779 -10.133334,28.622224l0,18.311112c0,1.777778 -1.066667,3.377778 -2.844445,3.911111l-48.177781,16.355557c-1.955556,0.711111 -3.733334,-0.533333 -3.733334,-2.488889zm1.422222,-57.955559c0.533333,1.955556 1.422222,3.911111 2.488889,5.688889l-3.2,4.444445c-0.533333,0.888889 -0.533333,1.955556 0.177778,2.666667l1.955556,1.955556l1.955556,1.955556c0.711111,0.711111 1.777778,0.888889 2.666667,0.177778l4.444445,-3.2c1.777778,1.066667 3.733334,1.777778 5.866667,2.311111l0.888889,5.333334c0.177778,1.066667 1.066667,1.777778 1.955556,1.777778l2.666667,0l2.666667,0c1.066667,0 1.777778,-0.711111 1.955556,-1.777778l0.888889,-5.333334c1.955556,-0.533333 3.911111,-1.244445 5.688889,-2.311111l4.444445,3.2c0.888889,0.533333 1.955556,0.533333 2.666667,-0.177778l1.955556,-1.955556l1.955556,-1.955556c0.711111,-0.711111 0.888889,-1.777778 0.177778,-2.666667l-3.2,-4.444445c1.066667,-1.777778 1.955556,-3.733334 2.488889,-5.866667l5.333334,-0.888889c1.066667,-0.177778 1.777778,-1.066667 1.777778,-1.955556l0,-2.666667l0,-2.666667c0,-1.066667 -0.711111,-1.777778 -1.777778,-1.955556l-5.333334,-0.888889c-0.533333,-1.955556 -1.244445,-3.911111 -2.488889,-5.866667l3.2,-4.444445c0.533333,-0.888889 0.533333,-1.955556 -0.177778,-2.666667l-1.955556,-1.955556l-1.955556,-2.133333c-0.711111,-0.711111 -1.777778,-0.711111 -2.666667,-0.177778l-4.444445,3.2c-1.777778,-1.066667 -3.733334,-1.955556 -5.866667,-2.488889l-0.888889,-5.333334c-0.177778,-1.066667 -1.066667,-1.777778 -1.955556,-1.777778l-2.666667,0l-2.666667,0c-1.066667,0 -1.777778,0.711111 -1.955556,1.777778l-0.888889,5.333334c-2.133333,0.533333 -4.088889,1.422222 -5.866667,2.488889l-4.444445,-3.2c-0.888889,-0.533333 -1.955556,-0.533333 -2.666667,0.177778l-1.955556,1.955556l-1.955556,2.133333c-0.711111,0.711111 -0.888889,1.777778 -0.177778,2.666667l3.2,4.444445c-1.066667,1.777778 -1.777778,3.733334 -2.311111,5.866667l-5.333334,0.888889c-1.066667,0.177778 -1.777778,1.066667 -1.777778,1.955556l0,2.666667l0,2.666667c0,1.066667 0.711111,1.777778 1.777778,1.955556l5.333334,1.066667z"/>
  </g>
 </g>
</svg>