<?xml version="1.0" encoding="utf-8"?>
<!-- Generator: Adobe Illustrator 21.1.0, SVG Export Plug-In . SVG Version: 6.00 Build 0)  -->
<svg version="1.1" id="Layer_1" xmlns="http://www.w3.org/2000/svg" xmlns:xlink="http://www.w3.org/1999/xlink" x="0px" y="0px"
	 viewBox="0 0 95 111" style="enable-background:new 0 0 95 111;" xml:space="preserve">
<style type="text/css">
	.st0{display:none;}
	.st1{display:inline;fill:none;}
</style>
<g>
	<title>background</title>
	<g id="canvasGrid" class="st0">
		<rect class="st1" width="95" height="111"/>
	</g>
</g>
<g>
	<title>Layer 1</title>
	<g id="svg_7">
		<path id="svg_4" d="M43.9,50.7c-4.6-4.6-4.6-12.1,0-16.7s12.1-4.6,16.7,0s4.6,12.1,0,16.7S48.5,55.3,43.9,50.7z M29,106.3V96.2
			H17.4c-4.1,0-7.3-3.4-7.3-7.3V68.8H4.6c-2.8,0-4.6-3.2-3-5.5c1.6-2.5,3.6-5.9,5.3-9.4c1.8-3.4,3.2-9.2,3.2-13v-1.1h0.2
			C11.9,17.1,31.7-0.9,55.1,0.9c21.3,1.4,38.2,19.4,38.8,40.7c0.4,11-3.6,21-10.1,28.6v18.3c0,1.8-1.1,3.4-2.8,3.9l-48.2,16.4
			C30.8,109.5,29,108.3,29,106.3z M30.4,48.4c0.5,2,1.4,3.9,2.5,5.7l-3.2,4.4c-0.5,0.9-0.5,2,0.2,2.7l2,2l2,2
			c0.7,0.7,1.8,0.9,2.7,0.2l4.4-3.2c1.8,1.1,3.7,1.8,5.9,2.3l0.9,5.3c0.2,1.1,1.1,1.8,2,1.8h2.7H55c1.1,0,1.8-0.7,2-1.8l0.9-5.3
			c2-0.5,3.9-1.2,5.7-2.3l4.4,3.2c0.9,0.5,2,0.5,2.7-0.2l2-2l2-2c0.7-0.7,0.9-1.8,0.2-2.7l-3.2-4.4c1.1-1.8,2-3.7,2.5-5.9l5.3-0.9
			c1.1-0.2,1.8-1.1,1.8-2v-2.7V40c0-1.1-0.7-1.8-1.8-2L74,37.2c-0.5-2-1.2-3.9-2.5-5.9l3.2-4.4c0.5-0.9,0.5-2-0.2-2.7l-2-2l-2-2.1
			c-0.7-0.7-1.8-0.7-2.7-0.2l-4.4,3.2c-1.8-1.1-3.7-2-5.9-2.5l-0.9-5.3c-0.2-1.1-1.1-1.8-2-1.8h-2.7h-2.7c-1.1,0-1.8,0.7-2,1.8
			l-0.9,5.3c-2.1,0.5-4.1,1.4-5.9,2.5l-4.4-3.2c-0.9-0.5-2-0.5-2.7,0.2l-2,2l-2,2.1c-0.7,0.7-0.9,1.8-0.2,2.7l3.2,4.4
			c-1.1,1.8-1.8,3.7-2.3,5.9l-5.3,0.9c-1.1,0.2-1.8,1.1-1.8,2v2.7v2.7c0,1.1,0.7,1.8,1.8,2L30.4,48.4L30.4,48.4z"/>
	</g>
</g>
</svg>
