<?xml version="1.0" encoding="utf-8"?>
<!-- Generator: Adobe Illustrator 16.0.0, SVG Export Plug-In . SVG Version: 6.00 Build 0)  -->
<!DOCTYPE svg PUBLIC "-//W3C//DTD SVG 1.1//EN" "http://www.w3.org/Graphics/SVG/1.1/DTD/svg11.dtd">
<svg version="1.1" id="Layer_1" xmlns="http://www.w3.org/2000/svg" xmlns:xlink="http://www.w3.org/1999/xlink" x="0px" y="0px"
	 width="249.388px" height="279.287px" viewBox="181.308 256.36 249.388 279.287"
	 enable-background="new 181.308 256.36 249.388 279.287" xml:space="preserve">
<path fill="#666666" d="M321.3,256.36c-60.318,0-109.395,49.076-109.395,109.395v5.324l-29.51,55.117
	c-1.524,2.846-1.438,6.279,0.214,9.051c1.659,2.767,4.651,4.462,7.876,4.462h21.42v33.887c0,19.406,15.79,35.189,35.19,35.189h39.78
	v17.681c0,5.067,4.113,9.181,9.18,9.181s9.18-4.113,9.18-9.181v-26.86c0-5.067-4.112-9.18-9.18-9.18h-48.96
	c-9.284,0-16.83-7.546-16.83-16.83v-43.066c0-5.067-4.113-9.181-9.18-9.181h-15.27l23.36-43.635
	c0.716-1.334,1.089-2.821,1.089-4.333v-7.625c0-50.196,40.839-91.035,91.035-91.035c50.196,0,91.035,40.839,91.035,91.035
	c0,24.156-9.345,46.818-26.347,63.948c-2.209,1.695-3.599,4.363-3.599,7.289v89.192c0,5.067,4.113,9.18,9.181,9.18
	c5.066,0,9.18-4.112,9.18-9.18v-85.331c19.339-20.367,29.945-46.885,29.945-75.099C430.695,305.43,381.619,256.36,321.3,256.36z
	 M400.224,356.098c3.194-29.37-24.009-64.156-69.621-69.132c-24.492-2.68-70.931,10.031-79.272,42.204
	c-2.479,9.578-1.695,17.583,2.344,23.783c6.671,10.245,19.829,12.411,31.445,14.327c3.819,0.637,7.43,1.224,10.679,2.044
	c4.002,1.01,7.76,3.972,12.516,7.717c7.527,5.943,16.903,13.33,32.834,17.767c0.189,0.055,0.373,0.073,0.563,0.128
	c-2.632,5.557-3.983,11.916-3.775,18.641c0.152,4.976,4.229,8.899,9.167,8.899c0.099,0,0.19,0,0.288-0.007
	c5.067-0.152,9.052-4.388,8.893-9.455c-0.099-3.219,0.41-10.74,6.12-15.674C383.479,395.896,397.524,380.73,400.224,356.098z
	 M358.987,379.121c-3.831-0.006-8.177-0.673-12.92-2.001c-12.381-3.445-19.511-9.063-26.396-14.492
	c-5.961-4.7-11.591-9.131-19.382-11.095c-3.997-1.01-8.164-1.695-12.191-2.362c-7.479-1.23-16.781-2.767-19.04-6.23
	c-1.077-1.652-1.053-4.902,0.049-9.162c4.872-18.794,34.823-28.807,54.578-28.807c1.744,0,3.403,0.085,4.939,0.251
	c37.344,4.07,55.245,31.493,53.354,48.886c-1.236,11.347-6.199,24.847-22.662,24.988
	C359.201,379.097,359.097,379.121,358.987,379.121z"/>
</svg>
