<svg xmlns="http://www.w3.org/2000/svg" xmlns:xlink="http://www.w3.org/1999/xlink" fill="#666666" version="1.1" enable-background="new 0 0 100 100" xml:space="preserve" width="100" height="100" style=""><rect id="backgroundrect" width="100%" height="100%" x="0" y="0" fill="none" stroke="none"/><g class="currentLayer" style=""><title>Layer 1</title><path d="M77.047,45.459C76.865,33.143,65.172,19.5,49.554,19.5c-15.616,0-27.309,13.643-27.49,25.959  c-0.002,0.097-0.009,0.194-0.009,0.291c0,1.897,1.025,3.686,13.407,4.716c0.883,0.073,1.803,0.14,2.756,0.2l0.252-3.992  c-0.926-0.058-1.82-0.123-2.677-0.194c-2.61-0.217-4.63-0.474-6.161-0.728c0.005-0.001,0.011-0.001,0.016-0.002  c2.457-0.404,5.985-0.791,10.552-1.024c-0.032,0.341-0.063,0.683-0.096,1.024c-0.176,1.88-0.341,3.757-0.491,5.489  c-0.182,2.085-0.346,3.958-0.488,5.371c-0.466,4.58-0.735,7.851-0.735,11.015c0,5.765,0.886,9.214,2.871,11.185  c2.035,2.021,4.632,1.994,7.151,1.983l0.729-0.004l0.729,0.004c0.24,0.001,0.48,0.003,0.721,0.003c2.284,0,4.588-0.158,6.429-1.985  c1.985-1.972,2.871-5.421,2.871-11.186c0-3.004-0.253-6.164-0.632-9.986c-0.14-1.403-0.301-3.228-0.481-5.279  c-0.183-2.063-0.382-4.319-0.6-6.609c-0.033-0.355-0.067-0.707-0.102-1.063c4.971,0.228,8.786,0.636,11.39,1.063  c0.006,0.001,0.013,0.002,0.019,0.003c-1.772,0.294-4.2,0.59-7.432,0.826c-0.597,0.043-1.206,0.083-1.829,0.121l0.236,3.993  c0.643-0.038,1.27-0.08,1.883-0.124c13.589-0.991,14.714-2.845,14.714-4.818C77.055,45.653,77.049,45.556,77.047,45.459z   M54.159,45.75c0.23,2.408,0.441,4.791,0.633,6.961c0.183,2.068,0.345,3.908,0.485,5.322c0.367,3.704,0.612,6.753,0.612,9.592  c0,4.426-0.568,7.233-1.689,8.347c-0.811,0.806-2.171,0.829-4.302,0.821l-0.758-0.004l-0.758,0.004  c-2.137,0.013-3.492-0.015-4.305-0.822c-1.12-1.112-1.688-3.92-1.688-8.346c0-2.994,0.262-6.158,0.714-10.61  c0.146-1.428,0.311-3.321,0.494-5.428c0.16-1.838,0.336-3.841,0.523-5.837c0.037-0.395,0.076-0.786,0.113-1.179  c1.668-0.045,3.438-0.071,5.32-0.071c1.573,0,3.064,0.019,4.487,0.05C54.081,44.951,54.121,45.35,54.159,45.75z M49.554,40.5  c-12.627,0-19.445,0.833-23.139,1.86c1.908-9.354,11.34-18.86,23.139-18.86c11.8,0,21.232,9.507,23.142,18.86  C69.002,41.334,62.182,40.5,49.554,40.5z" id="svg_1" class="selected" fill="#000000" fill-opacity="1" stroke-dasharray="none" stroke-width="133" stroke-linecap="round" stroke-linejoin="miter" filter="url(#f033)"/></g><defs><filter id="f033" xmlns:inkscape="http://www.inkscape.org/namespaces/inkscape" inkscape:label="Age" x="0" y="0" width="1" height="1" inkscape:menu="Image effects" inkscape:menu-tooltip="Imitate aged photograph" color-interpolation-filters="sRGB">
            <feColorMatrix type="saturate" in="SourceGraphic" values="0"/>
            <feColorMatrix values="3 0 0 0 -0.3 0 3 0 0 -0.3 0 0 3 0 -0.3 0 0 0 1 0" result="result0"/>
            <feTurbulence baseFrequency=".111" numOctaves="2" type="fractalNoise"/>
            <feColorMatrix values="0 0 0 0 0 0 0 0 0 0 0 0 0 0 0 0 0 0 255 -200"/>
            <feGaussianBlur stdDeviation="1"/>
            <feComposite in2="result0" operator="atop"/>
        </filter></defs></svg>