<?xml version="1.0" encoding="utf-8"?>
<!-- Generator: Adobe Illustrator 16.0.0, SVG Export Plug-In . SVG Version: 6.00 Build 0)  -->
<!DOCTYPE svg PUBLIC "-//W3C//DTD SVG 1.1//EN" "http://www.w3.org/Graphics/SVG/1.1/DTD/svg11.dtd">
<svg version="1.1" id="Layer_1" xmlns="http://www.w3.org/2000/svg" xmlns:xlink="http://www.w3.org/1999/xlink" x="0px" y="0px"
	 width="280.226px" height="312.732px" viewBox="165.922 239.94 280.226 312.732"
	 enable-background="new 165.922 239.94 280.226 312.732" xml:space="preserve">
<g>
	<path d="M322.524,239.94c-67.933,0-123.625,55.692-123.625,123.624v4.284l-31.212,58.14c-2.448,4.896-2.448,10.403,0.612,15.3
		c3.06,4.896,7.956,7.344,13.464,7.344h17.748v31.212c0,23.868,19.584,43.452,43.452,43.452h37.332v13.464
		c0,8.568,6.732,15.3,15.3,15.3c8.568,0,15.3-6.731,15.3-15.3v-28.764c0-8.568-6.732-15.3-15.3-15.3h-52.632
		c-6.732,0-12.24-5.509-12.24-12.24v-46.512c0-8.568-6.732-15.301-15.3-15.301h-7.344l20.808-38.556
		c1.224-2.448,1.836-4.896,1.836-7.344v-7.956c0-50.796,41.616-92.412,92.412-92.412s92.412,41.616,92.412,92.412
		c0,24.48-9.18,47.736-26.315,64.26c-3.673,3.061-6.12,7.344-6.12,12.24v96.084c0,8.568,6.731,15.3,15.3,15.3
		c8.567,0,15.3-6.731,15.3-15.3v-90.576c20.808-22.644,32.437-52.02,32.437-83.232C446.148,295.02,390.456,239.94,322.524,239.94z"
		/>
	<path d="M403.92,360.504L403.92,360.504c3.672-31.824-25.704-69.768-74.664-75.276c-25.704-3.06-75.888,10.404-85.068,45.9
		c-3.06,11.016-1.836,20.808,3.06,28.152c7.956,12.24,22.644,14.688,35.496,16.524c3.672,0.612,6.732,1.224,9.792,1.836
		c3.06,0.612,6.12,3.672,10.404,6.732c6.732,5.508,15.3,12.24,29.376,17.136c-1.225,4.896-2.448,10.404-1.836,15.3
		c0,7.956,6.731,14.076,14.688,14.076c3.672,0,7.344-1.836,10.404-4.284c2.447-3.06,4.284-6.731,3.672-10.403
		c0-1.836,0-6.732,3.06-10.404C385.56,403.956,400.86,386.82,403.92,360.504z M375.156,357.444
		c-1.836,13.464-7.345,20.196-17.748,20.196c-3.061,0-7.344-0.612-11.628-1.836c-11.628-3.06-17.748-8.568-24.48-13.464
		c-6.12-4.896-12.24-9.792-21.42-12.24c-4.284-1.224-8.568-1.836-12.852-2.448c-11.628-1.836-14.688-3.06-15.3-3.672
		c0-0.612,0-1.836,0.612-4.896c4.284-15.3,31.212-25.092,49.572-25.092c1.836,0,3.06,0,4.284,0
		C360.468,317.664,376.38,342.144,375.156,357.444z"/>
</g>
</svg>
