<svg width="569" height="247" xmlns="http://www.w3.org/2000/svg" preserveAspectRatio="xMidYMid meet">
 <metadata>Created by potrace 1.12, written by Peter Selinger 2001-2015</metadata>

 <g>
  <title>background</title>
  <rect fill="none" id="canvas_background" height="249" width="571" y="-1" x="-1"/>
 </g>
 <g>
  <title>Layer 1</title>
  <g id="svg_1" fill="#FFFFFF" transform="translate(0,388) scale(0.10000000149011612,-0.10000000149011612) ">
   <path id="svg_2" d="m2544,3841c-283,-59 -565,-199 -809,-402c-95,-79 -225,-213 -271,-280l-27,-39l29,-42c45,-66 217,-240 305,-310c364,-286 777,-427 1139,-388c373,40 751,216 1021,477c59,57 130,138 159,179c61,88 62,80 -30,202c-121,161 -315,315 -540,431c-153,78 -267,121 -420,158c-146,35 -420,42 -556,14zm396,-188c353,-97 518,-525 320,-833c-45,-70 -148,-163 -222,-199c-69,-34 -178,-61 -248,-61c-70,0 -179,27 -248,61c-123,60 -242,198 -282,325c-63,207 -15,408 135,560c147,150 344,203 545,147z"/>
   <path id="svg_3" d="m2673,3506c-104,-34 -204,-123 -251,-224c-24,-50 -27,-69 -27,-162c0,-97 2,-110 32,-172c39,-83 108,-154 188,-194c56,-27 68,-29 175,-29c111,0 117,1 178,33c84,44 146,108 185,190c30,62 32,75 32,172c0,89 -4,113 -23,155l-23,50l-14,-38c-16,-46 -30,-64 -66,-83c-114,-59 -236,73 -169,183c21,34 48,53 95,63c30,7 29,8 -30,36c-50,23 -76,29 -150,31c-57,2 -106,-2 -132,-11z"/>
   <path id="svg_4" d="m731,2142c-51,-25 -72,-60 -78,-130l-6,-62l-43,0c-42,0 -44,-1 -44,-30c0,-29 2,-30 45,-30l45,0l0,-225l0,-225l35,0l35,0l2,223l3,222l80,5c44,3 101,3 128,2l47,-4l0,-224l0,-224l35,0l35,0l2,223l3,222l78,3l77,3l0,29l0,29l-77,3l-78,3l-3,34c-8,79 45,124 122,103c35,-9 43,-9 54,5c19,26 15,33 -25,50c-47,19 -125,13 -161,-14c-38,-27 -62,-80 -62,-135l0,-46l-47,-4c-27,-1 -84,-1 -128,2l-80,5l1,47c0,55 22,85 68,93c17,4 45,1 61,-5c25,-9 31,-8 42,6c19,27 16,34 -22,50c-46,19 -103,18 -144,-4z"/>
   <path id="svg_5" d="m4430,2009l0,-151l-37,32c-49,44 -92,60 -155,60c-78,0 -125,-17 -173,-61c-63,-58 -89,-125 -83,-215c8,-122 77,-207 189,-234c83,-20 160,-2 228,56l31,26l0,-41c0,-40 1,-41 35,-41l35,0l0,360l0,360l-35,0l-35,0l0,-151zm-86,-149c135,-94 97,-325 -59,-358c-182,-39 -303,162 -194,319c49,70 178,89 253,39z"/>
   <path id="svg_6" d="m10,1780l0,-340l240,0l240,0l0,30l0,30l-202,2l-203,3l0,125l0,125l173,3l172,2l0,30l0,30l-175,0l-175,0l0,120l0,120l195,0l195,0l0,30l0,30l-230,0l-230,0l0,-340z"/>
   <path id="svg_7" d="m3090,1780l0,-340l40,0l40,0l0,340l0,340l-40,0l-40,0l0,-340z"/>
   <path id="svg_8" d="m2438,2008l-3,-53l-42,-3c-40,-3 -43,-5 -43,-32c0,-27 3,-29 43,-32l42,-3l5,-180c5,-196 11,-215 67,-252c36,-24 130,-24 166,0c23,15 25,20 16,40c-10,23 -12,23 -54,9c-37,-12 -48,-12 -71,0c-49,23 -54,48 -51,223l2,160l78,3l77,3l0,29l0,29l-77,3l-78,3l-3,53c-3,52 -3,52 -37,52c-34,0 -34,0 -37,-52z"/>
   <path id="svg_9" d="m1390,1934c-83,-36 -140,-121 -148,-221c-6,-79 15,-140 70,-199c51,-56 112,-79 203,-79c58,1 79,6 124,30c62,34 70,48 46,75c-16,17 -20,18 -34,6c-74,-64 -191,-68 -270,-9c-30,24 -70,91 -71,120c0,10 52,13 213,15c244,3 233,-2 202,103c-19,66 -72,130 -130,156c-50,23 -156,24 -205,3zm173,-58c51,-22 107,-93 107,-137c0,-12 -347,-12 -354,0c-17,27 45,113 99,137c39,17 107,18 148,0z"/>
   <path id="svg_10" d="m1985,1934c-50,-18 -112,-77 -136,-129c-26,-56 -25,-165 2,-225c27,-59 53,-86 114,-118c41,-21 64,-26 125,-26c82,0 134,20 179,68c24,26 24,26 5,41c-26,19 -30,19 -67,-9c-49,-37 -114,-49 -174,-31c-53,16 -105,62 -122,108c-26,69 -3,186 45,229c72,64 193,61 264,-7c25,-24 25,-24 49,-4l24,20l-29,31c-44,46 -99,68 -174,67c-36,0 -83,-7 -105,-15z"/>
   <path id="svg_11" d="m3370,1695l0,-255l35,0l35,0l0,149c0,84 5,163 11,182c46,137 252,159 305,33c10,-24 14,-81 14,-199l0,-165l36,0l35,0l-3,193c-3,187 -4,195 -28,230c-65,95 -212,115 -320,42l-50,-34l0,40c0,38 -1,39 -35,39l-35,0l0,-255z"/>
   <path id="svg_12" d="m4772,1924c-88,-44 -131,-120 -131,-229c0,-110 44,-186 132,-229c29,-15 76,-29 103,-32c65,-8 154,17 197,55c31,29 31,29 13,50l-19,20l-29,-20c-16,-12 -50,-28 -76,-35c-92,-28 -204,20 -238,103c-28,65 -36,63 196,63l210,0l0,52c0,173 -195,283 -358,202zm222,-68c35,-26 56,-58 70,-103l7,-23l-180,0c-205,0 -201,-2 -156,75c50,87 179,112 259,51z"/>
   <path id="svg_13" d="m5200,1945c0,-4 41,-60 91,-125c57,-76 88,-124 83,-132c-4,-7 -47,-63 -96,-125c-48,-62 -88,-115 -88,-118c0,-3 17,-5 38,-5c35,1 41,5 112,100c41,55 80,98 85,96c6,-1 44,-46 85,-99c71,-92 76,-97 112,-97c21,0 38,2 38,5c0,2 -43,57 -95,122c-52,65 -94,123 -95,129c0,7 37,61 83,120c110,144 105,134 60,134c-36,-1 -41,-5 -113,-100c-41,-55 -77,-97 -80,-94c-3,3 -37,47 -75,97c-64,84 -73,92 -108,95c-20,2 -37,0 -37,-3z"/>
  </g>
 </g>
</svg>