<?xml version="1.0" encoding="utf-8"?>
<!-- Generator: Adobe Illustrator 16.0.0, SVG Export Plug-In . SVG Version: 6.00 Build 0)  -->
<!DOCTYPE svg PUBLIC "-//W3C//DTD SVG 1.1//EN" "http://www.w3.org/Graphics/SVG/1.1/DTD/svg11.dtd">
<svg version="1.1" id="Layer_1" xmlns="http://www.w3.org/2000/svg" xmlns:xlink="http://www.w3.org/1999/xlink" x="0px" y="0px"
	 width="569px" height="247px" viewBox="0 0 569 247" enable-background="new 0 0 569 247" xml:space="preserve">
<g>
	<title>background</title>
	<rect id="canvas_background" x="-1" y="-1" fill="none" width="571" height="249"/>
</g>
<g>
	<title>Layer 1</title>
	<g id="svg_1" transform="translate(0,388) scale(0.10000000149011612,-0.10000000149011612) ">
		<path id="svg_2" fill="#FFFFFF" d="M2543.999,3841c-282.998-58.999-565-198.999-808.999-402.002
			c-95-78.999-225-212.998-271.001-280L1437.002,3120l28.999-42.002c45-65.996,216.997-240,305-310
			C2135,2482.002,2547.998,2340.996,2910,2380c372.998,40,750.996,215.996,1020.996,477.002C3990,2913.999,4060.996,2995,4090,3036
			c60.996,87.998,62.002,80-30,201.997c-120.996,161.001-315,315-540,431.001c-152.998,78.003-267.002,121.001-420,158.003
			C2954.004,3862.001,2680,3868.999,2543.999,3841z M2940,3652.998c352.998-96.997,517.998-525,320-832.998
			c-45-70-147.998-162.998-222.002-199.004C2969.004,2587.001,2860,2560,2790,2560s-178.999,27.002-247.998,60.996
			C2418.999,2681,2300,2818.999,2260,2946c-62.998,206.997-15,407.998,135,560C2542.002,3656,2738.999,3708.999,2940,3652.998z"/>
		<path id="svg_3" fill="#FFFFFF" d="M2672.998,3506c-103.999-33.999-203.999-123.003-250.996-223.999
			c-24.004-50-27.002-69.004-27.002-162.002c0-97.002,2.002-110,32.002-172.002C2466.001,2865,2535,2793.999,2615,2753.999
			c56.001-26.997,67.998-28.999,175-28.999c110.996,0,117.002,1.001,177.998,32.998c84.004,44.004,146.006,108.003,185,190
			c30,62.002,32.002,75,32.002,172.002c0,88.999-4.004,112.998-22.998,155l-22.998,50L3125,3287.001
			c-15.996-46.001-30-64.004-65.996-83.003C2945,3145,2822.998,3277.001,2890,3387.001c20.996,33.999,47.998,52.998,95,62.998
			c30,7.002,29.004,7.998-30,36.001c-50,22.998-75.996,28.999-150,31.001C2747.998,3518.999,2698.999,3515,2672.998,3506z"/>
		<path id="svg_4" fill="#FFFFFF" d="M731.001,2142.002c-51.001-25-72.002-60-78.003-130L647.002,1950h-43.003
			c-41.997,0-43.999-0.996-43.999-30s2.002-30,45-30h45v-225v-225h35h35l2.002,222.998L725,1885l80,5
			c43.999,2.998,101.001,2.998,127.998,2.002l47.002-4.004v-223.994V1440h35h35l2.002,222.998L1055,1885l77.998,2.998l77.002,2.998
			V1920v29.004l-77.002,2.998L1055,1955l-2.998,34.004c-8.003,78.994,45,123.994,121.997,102.998c35-9.004,43.003-9.004,53.999,5
			c19.004,25.996,15,32.998-25,50c-46.997,18.994-125,12.998-160.996-14.004c-38.003-27.002-62.002-80-62.002-135v-45.996
			l-47.002-4.004c-26.997-0.996-83.999-0.996-127.998,2.002l-80,5l1.001,47.002c0,55,21.997,85,67.998,92.998
			c17.002,4.004,45,0.996,61.001-5c25-9.004,31.001-7.998,42.002,5.996c18.999,27.002,15.996,34.004-22.002,50
			C828.999,2165,772.002,2164.004,731.001,2142.002z"/>
		<path id="svg_5" fill="#FFFFFF" d="M4430,2009.004v-151.006L4392.998,1890c-48.994,44.004-92.002,60-155,60
			c-77.998,0-125-17.002-172.998-60.996c-62.998-58.008-89.004-125-82.998-215c7.998-122.002,77.002-207.002,188.994-234.004
			c83.008-20,160-2.002,228.008,55.996l30.996,26.006v-41.006c0-40,0.996-40.996,35-40.996h35v360v360h-35h-35V2009.004z
			 M4344.003,1860c135-94.004,96.992-325-59.004-357.998c-182.002-39.004-302.998,162.002-194.004,318.994
			C4140,1890.996,4269.003,1910,4344.003,1860z"/>
		<path id="svg_6" fill="#FFFFFF" d="M10,1780v-340h240h240v30v30l-202.002,2.002L85,1505v125v125l172.998,2.998L430,1760v30v30H255
			H80v120v120h195h195v30v30H240H10V1780z"/>
		<path id="svg_7" fill="#FFFFFF" d="M3090,1780v-340h40h40v340v340h-40h-40V1780z"/>
		<path id="svg_8" fill="#FFFFFF" d="M2437.998,2007.998L2435,1955l-42.002-2.998c-40-2.998-42.998-5-42.998-32.002
			s2.998-29.004,42.998-32.002L2435,1885l5-180c5-195.996,11.001-215,67.002-252.002c35.996-23.994,130-23.994,165.996,0
			c23.003,15,25,20,16.001,40c-10,22.998-11.997,22.998-53.999,9.004c-37.002-12.002-47.998-12.002-71.001,0
			C2515,1525,2510,1550,2512.998,1725l2.002,160l77.998,2.998l77.002,2.998V1920v29.004l-77.002,2.998L2515,1955l-2.998,52.998
			C2508.999,2060,2508.999,2060,2475,2060S2441.001,2060,2437.998,2007.998z"/>
		<path id="svg_9" fill="#FFFFFF" d="M1390,1934.004c-82.998-36.006-140-121.006-147.998-221.006c-6.001-78.994,15-140,70-198.994
			C1362.998,1457.998,1423.999,1435,1515,1435c57.998,0.996,78.999,5.996,123.999,30c62.002,34.004,70,47.998,46.001,75
			c-16.001,17.002-20,17.998-33.999,5.996c-73.999-63.994-191.001-67.998-270-8.994c-30,23.994-70,90.996-71.001,120
			c0,10,52.002,12.998,212.998,15C1767.002,1675,1756.001,1670,1725,1775c-18.999,65.996-72.002,130-130,155.996
			C1545,1954.004,1438.999,1955,1390,1934.004z M1562.998,1875.996c51.001-21.992,107.002-92.998,107.002-136.992
			c0-12.002-347.002-12.002-353.999,0c-17.002,26.992,45,112.998,98.999,136.992
			C1453.999,1892.998,1522.002,1894.004,1562.998,1875.996z"/>
		<path id="svg_10" fill="#FFFFFF" d="M1985,1934.004c-50-18.008-112.002-77.002-136.001-129.004c-26.001-55.996-25-165,2.002-225
			c26.997-59.004,52.998-85.996,113.999-117.998c41.001-21.006,63.999-26.006,125-26.006c82.002,0,133.999,20,178.999,68.008
			c23.999,25.996,23.999,25.996,5,40.996c-26.001,19.004-30,19.004-66.997-9.004c-49.004-36.992-114.004-48.994-174.004-30.996
			c-52.998,15.996-105,62.002-121.997,107.998c-26.001,69.004-3.003,186.006,45,229.004c71.997,63.994,192.998,60.996,263.999-7.002
			c25-24.004,25-24.004,48.999-4.004l23.999,20l-28.999,31.006C2220,1927.998,2165,1950,2090,1949.004
			C2053.999,1949.004,2007.002,1942.002,1985,1934.004z"/>
		<path id="svg_11" fill="#FFFFFF" d="M3370,1695v-255h35h35v149.004c0,83.994,5,162.998,10.996,181.992
			c46.006,137.002,252.002,159.004,305,33.008C3765.996,1780,3770,1722.998,3770,1605v-165h35.996h35l-2.998,192.998
			c-2.998,187.002-3.994,195-27.998,230c-65,95-212.002,115-320,42.002l-50-34.004v40c0,38.008-0.996,39.004-35,39.004h-35V1695z"/>
		<path id="svg_12" fill="#FFFFFF" d="M4772.001,1924.004c-87.998-44.004-131.006-120-131.006-229.004
			c0-110,44.004-185.996,132.002-229.004c29.004-15,76.006-28.994,102.998-31.992c65-8.008,154.004,16.992,197.002,55
			c31.006,28.994,31.006,28.994,12.998,50l-18.994,20l-29.004-20c-15.996-12.002-50-28.008-75.996-35
			c-92.002-28.008-204.004,20-237.998,102.998c-28.008,65-36.006,62.998,195.996,62.998h210v52.002
			C5130,1895,4935,2005,4772.001,1924.004z M4994.003,1855.996c35-25.996,55.996-57.998,70-102.998l6.992-22.998h-180
			c-205,0-200.996-2.002-155.996,75C4785,1892.002,4914.003,1917.002,4994.003,1855.996z"/>
		<path id="svg_13" fill="#FFFFFF" d="M5200,1945c0-4.004,40.996-60,90.996-125c57.002-75.996,88.008-124.004,83.008-132.002
			c-4.004-7.002-47.002-62.998-96.006-125C5230,1500.996,5190,1447.998,5190,1445s17.002-5,37.998-5c35,0.996,41.006,5,112.002,100
			c40.996,55,80,97.998,85,95.996c5.996-0.996,44.004-45.996,85-98.994C5580.996,1445,5585.996,1440,5622.001,1440
			c20.996,0,37.998,2.002,37.998,5c0,2.002-42.998,57.002-95,122.002s-94.004,122.998-95,128.994c0,7.002,37.002,61.006,82.998,120
			c110,144.004,105,134.004,60,134.004c-35.996-0.996-40.996-5-112.998-100c-40.996-55-77.002-97.002-80-94.004
			c-2.998,3.008-37.002,47.002-75,97.002c-64.004,84.004-72.998,92.002-107.998,95C5217.001,1950,5200,1947.998,5200,1945z"/>
	</g>
</g>
</svg>
