<svg enable-background="new 0 0 32 32" version="1.1" viewBox="0 0 32 32" xml:space="preserve" xmlns="http://www.w3.org/2000/svg"><g id="Flat_copy"><path d="M16,31.62c-8.616,0-15.625-7.01-15.625-15.625S7.384,0.37,16,0.37c8.615,0,15.625,7.01,15.625,15.625     S24.615,31.62,16,31.62z" fill="#fff"/><path d="m16 0.745c8.409 0 15.25 6.841 15.25 15.25s-6.841 15.25-15.25 15.25-15.25-6.841-15.25-15.25 6.841-15.25 15.25-15.25m0-0.75c-8.837 0-16 7.163-16 16 0 8.836 7.163 16 16 16s16-7.164 16-16c0-8.837-7.163-16-16-16z" fill="#E5E5E5"/></g><path d="m25.944 10.987c-0.2387-0.89881-0.94202-1.6067-1.835-1.8469-1.6186-0.43652-8.1091-0.43652-8.1091-0.43652s-6.4904 0-8.1091 0.43652c-0.89299 0.24026-1.5963 0.9481-1.835 1.8469-0.43371 1.6291-0.43371 5.0282-0.43371 5.0282s0 3.399 0.43371 5.0282c0.23871 0.89881 0.94202 1.5772 1.835 1.8174 1.6187 0.43652 8.1091 0.43652 8.1091 0.43652s6.4904 0 8.1091-0.43652c0.89299-0.24023 1.5963-0.91861 1.835-1.8174 0.43371-1.6291 0.43371-5.0282 0.43371-5.0282s0-3.399-0.43371-5.0282zm-12.067 8.1143v-6.1722l5.4247 3.0862z" fill="#333" stroke-width=".038004"/></svg>
