<svg width="1792" height="1792" xmlns="http://www.w3.org/2000/svg" style=""><rect id="backgroundrect" width="100%" height="100%" x="0" y="0" fill="none" stroke="none"/><g class="currentLayer" style=""><title>Layer 1</title><path d="M897.7750172134256,3.5555725123886077 q244.19694420535234,0 450.42069170990726,122.8572859541764 t326.56961673340993,333.384577668101 t120.34586922885501,459.82021714305665 q0,299.39005957405243 -171.17154187563574,538.5442970885815 t-442.24185086309444,330.9989862477014 q-31.5469751891942,5.96394599148573 -46.73626045406854,-8.349523757895895 t-15.189284236037565,-35.78367384830062 q0,-3.578367437345406 0.5842032299549373,-91.24836768298246 t0.5842032299549373,-160.43014076409418 q0,-115.70054530279776 -60.75713694415026,-169.37606657831748 q66.59916847207205,-7.156734874690812 119.76166278378514,-21.470205149225876 t109.83021083245694,-46.51877642291356 t94.6409255675826,-79.32047780062476 t61.925541603595775,-125.24286056966594 t23.952332556757028,-179.51477129783052 q0,-141.94191648791275 -92.30410801799735,-245.7145719083528 q43.23103824503778,-108.54381305387415 -9.347251679278997,-243.32898048795323 q-32.715379848639714,-10.735102574612938 -94.6409255675826,13.120680341023103 t-107.4933932828717,52.48272136409241 l-44.399447019830404,28.62693949876325 q-108.66179794231721,-31.012518315480293 -224.33404030269594,-31.012518315480293 t-224.33404030269594,31.012518315480293 q-18.694503358557995,-13.120680341023103 -49.65727621802944,-32.205307723838814 t-97.5619413315435,-45.92238276904118 t-99.31455243605888,-16.102653861919407 q-52.57829198199033,134.7851758365341 -9.347251679278997,243.32898048795323 q-92.30410801799735,103.77265542044006 -92.30410801799735,245.7145719083528 q0,101.38708080495053 23.952332556757028,178.9183650402756 t61.34133927387302,125.24286056966594 t94.05671912251273,79.91687565572465 t109.83021083245694,46.51877642291356 t119.76166278378514,21.470205149225876 q-45.56785167927592,42.94041029845175 -57.2519147351195,122.8572859541764 q-24.536534886479785,11.92789198297146 -52.57829198199033,17.89183692415031 t-66.59916847207205,5.96394599148573 t-76.53062453874736,-25.644967028173824 t-64.84655736755667,-74.54932016719067 q-22.199723509915202,-38.169252665017666 -56.66771240539674,-62.025036630960585 t-57.836121180189366,-28.62693949876325 l-23.36813022703427,-3.578367437345406 q-24.536534886479785,0 -33.88378656575878,5.367551287306469 t-5.842032556758568,13.717075045202364 t10.515658396398067,16.69904751579179 t15.189284236037565,14.313469749381625 l8.178844962159928,5.96394599148573 q25.704941603598854,11.92789198297146 50.82568087747495,45.325989115168795 t36.80480438739323,60.83224512198831 l11.684065113517136,27.434150090404728 q15.189284236037565,45.325989115168795 51.40988320719771,73.3565328594459 t78.28323564326274,35.78367384830062 t81.20425140722364,8.349523757895895 t64.84655736755667,-4.1747618789479475 l26.873348320717923,-4.771156583127208 q0,45.325989115168795 0.5842032299549373,105.56184058328472 t0.5842032299549373,65.00700910155001 q0,21.470205149225876 -15.189284236037565,35.78367384830062 t-46.73626045406854,8.349523757895895 q-271.07029252607026,-91.84476553808236 -442.24185086309444,-330.9989862477014 t-171.17154187563574,-538.5442970885815 q0,-249.29292542913208 120.34586922885501,-459.82021714305665 t326.56961673340993,-333.384577668101 t450.42069170990726,-122.8572859541764 zm-557.3298703170149,1315.6464590439573 q3.505219379729624,-8.349523757895895 -8.178844962159928,-14.313469749381625 q-11.684065113517136,-3.578367437345406 -15.189284236037565,2.385578291563604 q-3.505219379729624,8.349523757895895 8.178844962159928,14.313469749381625 q10.515658396398067,7.156734874690812 15.189284236037565,-2.385578291563604 zm36.220602057670476,40.55483148173471 q8.178844962159928,-5.96394599148573 -2.3368129198197494,-19.084626332508833 q-11.684065113517136,-10.735102574612938 -18.694503358557995,-3.578367437345406 q-8.178844962159928,5.96394599148573 2.3368129198197494,19.084626332508833 q11.684065113517136,11.92789198297146 18.694503358557995,3.578367437345406 zm35.05219328287785,53.67551287306469 q10.515658396398067,-8.349523757895895 0,-22.662994557584398 q-9.347251679278997,-15.506259157740146 -19.862910075677064,-7.156734874690812 q-10.515658396398067,5.96394599148573 0,21.470205149225876 t19.862910075677064,8.349523757895895 zm49.07306977295957,50.09714254737537 q9.347251679278997,-9.542313166254417 -4.673625839639499,-22.662994557584398 q-14.020877518918496,-14.313469749381625 -23.36813022703427,-3.578367437345406 q-10.515658396398067,9.542313166254417 4.673625839639499,22.662994557584398 q14.020877518918496,14.313469749381625 23.36813022703427,3.578367437345406 zm66.59916847207205,29.81972890712177 q3.505219379729624,-13.120680341023103 -15.189284236037565,-19.084626332508833 q-17.526096641438926,-4.771156583127208 -22.199723509915202,8.349523757895895 t15.189284236037565,17.89183692415031 q17.526096641438926,7.156734874690812 22.199723509915202,-7.156734874690812 zm73.60960877478647,5.96394599148573 q0,-15.506259157740146 -19.862910075677064,-13.120680341023103 q-18.694503358557995,0 -18.694503358557995,13.120680341023103 q0,15.506259157740146 19.862910075677064,13.120680341023103 q18.694503358557995,0 18.694503358557995,-13.120680341023103 zm67.76757313151757,-11.92789198297146 q-2.3368129198197494,-13.120680341023103 -21.031316792796133,-10.735102574612938 q-18.694503358557995,3.578367437345406 -16.357689924319857,17.89183692415031 t21.031316792796133,9.542313166254417 t16.357689924319857,-16.69904751579179 z" fill="#fff" id="svg_1" class=""/></g></svg>